<svg aria-hidden="true" style="position: absolute; width: 0; height: 0; overflow: hidden;" version="1.1" xmlns="http://www.w3.org/2000/svg" xmlns:xlink="http://www.w3.org/1999/xlink">
<defs>
<symbol id="icon-close" viewBox="0 0 32 32">
<path fill="#4c00fe" style="fill: var(--color1, #4c00fe)" d="M1.646 32.020c-0.001 0-0.001 0-0.002 0-0.909 0-1.646-0.737-1.646-1.646 0-0.456 0.185-0.868 0.484-1.166l28.724-28.724c0.301-0.318 0.726-0.515 1.197-0.515 0.91 0 1.648 0.738 1.648 1.648 0 0.47-0.197 0.894-0.512 1.194l-0.001 0.001-28.724 28.724c-0.299 0.299-0.712 0.484-1.168 0.484h-0z"></path>
<path fill="#4c00fe" style="fill: var(--color1, #4c00fe)" d="M30.374 32.020c-0.001 0-0.002 0-0.003 0-0.454 0-0.865-0.185-1.161-0.484l-28.728-28.724c-0.28-0.295-0.452-0.694-0.452-1.134 0-0.91 0.738-1.648 1.648-1.648 0.44 0 0.839 0.172 1.135 0.453l-0.001-0.001 28.724 28.724c0.3 0.298 0.486 0.711 0.486 1.168 0 0.909-0.737 1.646-1.646 1.646v0z"></path>
</symbol>
<symbol id="icon-logo" viewBox="0 0 38 32">
<path fill="#000" style="fill: var(--color2, #000)" opacity="0.03" d="M-0.178 32.001c4.996 0 9.942-0.828 14.558-2.436s8.809-3.966 12.341-6.937c3.532-2.972 6.334-6.5 8.246-10.382s2.896-8.044 2.896-12.246h-38.041v32.001z"></path>
<path fill="#fff" style="fill: var(--color3, #fff)" d="M14.79 16.452c-0.198-0.552-0.607-0.828-1.225-0.828h-0.195v3.404h0.195c0.478 0 0.831-0.188 1.059-0.565 0.192-0.321 0.288-0.731 0.288-1.228-0.001-0.295-0.041-0.556-0.121-0.782zM11.441 16.493c0.199 0.552 0.607 0.828 1.225 0.828h0.196v-3.404h-0.196c-0.478 0-0.831 0.188-1.058 0.565-0.191 0.321-0.287 0.731-0.287 1.228 0 0.295 0.040 0.556 0.12 0.783zM8.193 8.482h2.597v0.901h-1.664v0.45h1.383v0.855h-1.383v0.456h1.665v0.901h-2.597v-3.565zM12.096 8.477h3.36l-1.68 3.641-1.68-3.641zM13.776 11.668l1.388-3.001h-2.771l1.383 3.001zM16.797 8.482h2.597v0.901h-1.664v0.451h1.383v0.855h-1.383v0.456h1.665v0.901h-2.597v-3.565zM20.992 12.041v-3.564h0.2l2.489 2.422v-2.422h0.19v3.565l-2.878-0.001zM26.59 12.046v-2.663h-1.347v-0.901h2.878v0.901h-1.347v2.663h-0.184zM9.725 14.628c0.225 0 0.404 0.034 0.538 0.102 0.3 0.149 0.502 0.452 0.502 0.803 0 0.006-0 0.011-0 0.017v-0.001c0.001 0.164-0.045 0.325-0.133 0.464-0.090 0.142-0.213 0.256-0.359 0.333l-0.005 0.002c0.185 0.065 0.347 0.182 0.466 0.338 0.124 0.154 0.191 0.346 0.19 0.543 0.001 0.172-0.046 0.342-0.136 0.489s-0.211 0.265-0.356 0.348l-0.005 0.003c-0.079 0.043-0.164 0.074-0.251 0.092-0.092 0.020-0.215 0.031-0.369 0.031h-1.578v-3.565h1.496zM15.73 17.934c-0.268-0.234-0.4-0.585-0.397-1.052h0.835c-0.004 0.195 0.055 0.343 0.174 0.446s0.287 0.154 0.502 0.154c0.178 0 0.318-0.029 0.42-0.087 0.092-0.049 0.154-0.144 0.154-0.254 0-0.004-0-0.009-0-0.013l0 0.001c0-0.099-0.052-0.171-0.156-0.215-0.099-0.043-0.203-0.075-0.309-0.095 0.045 0.005-0.020-0.007-0.084-0.018l-0.106-0.016c-0.261-0.049-0.49-0.114-0.709-0.197l0.028 0.009c-0.192-0.072-0.353-0.186-0.48-0.331l-0.001-0.001c-0.13-0.15-0.195-0.348-0.195-0.594s0.065-0.455 0.195-0.628c0.132-0.173 0.308-0.306 0.512-0.384l0.008-0.003c0.204-0.081 0.441-0.128 0.689-0.128 0.007 0 0.014 0 0.021 0h-0.001c0.31 0 0.58 0.058 0.806 0.174 0.229 0.119 0.413 0.3 0.532 0.521l0.003 0.007c0.060 0.1 0.1 0.21 0.118 0.325 0.014 0.101 0.020 0.203 0.020 0.305h-0.835c0-0.184-0.049-0.32-0.148-0.407s-0.252-0.13-0.461-0.13c-0.167 0-0.297 0.029-0.389 0.087s-0.139 0.137-0.139 0.235c0 0.11 0.062 0.19 0.185 0.241 0.131 0.054 0.287 0.102 0.448 0.136l0.018 0.003c0.307 0.061 0.547 0.12 0.72 0.176 0.174 0.057 0.329 0.161 0.448 0.3 0.126 0.143 0.19 0.345 0.19 0.604 0 0.245-0.068 0.457-0.205 0.635s-0.316 0.313-0.54 0.407c-0.209 0.089-0.453 0.141-0.709 0.141-0.006 0-0.011-0-0.017-0h0.001c-0.495-0.001-0.876-0.118-1.145-0.352zM20.444 18.192v-2.663h-1.347v-0.901h2.878v0.901h-1.347v2.663h-0.184zM22.943 14.628h2.597v0.901h-1.664v0.45h1.383v0.856h-1.383v0.456h1.665v0.901h-2.597v-3.565zM29.386 18.192h-2.74v-3.565h1.388c0.297 0 0.539 0.053 0.727 0.159 0.18 0.098 0.329 0.243 0.43 0.42 0.103 0.179 0.156 0.383 0.154 0.589 0 0.003 0 0.007 0 0.011 0 0.267-0.093 0.513-0.247 0.706l0.002-0.002c-0.153 0.2-0.366 0.347-0.612 0.415l-0.008 0.002 0.907 1.265zM26.835 14.94v1.838h1.316l-1.316-1.838zM26.835 18.003h2.192l-0.748-1.040-0.159 0.005h-1.286v1.035zM26.969 14.817l1.393 1.946c0.231-0.047 0.427-0.17 0.567-0.341l0.001-0.002c0.148-0.174 0.228-0.396 0.225-0.625 0-0.003 0-0.007 0-0.012 0-0.185-0.051-0.358-0.14-0.505l0.002 0.004c-0.093-0.153-0.226-0.274-0.384-0.351l-0.005-0.002c-0.15-0.075-0.347-0.113-0.589-0.113h-1.070z"></path>
</symbol>
<symbol id="icon-logo-mobile" viewBox="0 0 38 32">
<path fill="#000" style="fill: var(--color2, #000)" opacity="0.03" d="M-0.106 32.001c4.995 0 9.942-0.828 14.557-2.436s8.809-3.965 12.341-6.937 6.334-6.499 8.246-10.382c1.912-3.882 2.896-8.043 2.896-12.246h-38.040v32z"></path>
<path fill="#fff" style="fill: var(--color3, #fff)" d="M14.861 16.452c-0.199-0.552-0.607-0.828-1.226-0.828h-0.195v3.403h0.195c0.478 0 0.831-0.189 1.059-0.565 0.192-0.321 0.288-0.731 0.288-1.228-0-0.296-0.041-0.556-0.121-0.783zM11.512 16.493c0.199 0.552 0.607 0.828 1.225 0.828h0.195v-3.403h-0.195c-0.478 0-0.831 0.189-1.059 0.565-0.191 0.322-0.287 0.731-0.287 1.228 0 0.295 0.040 0.556 0.12 0.783zM8.265 8.482h2.596v0.901h-1.664v0.451h1.383v0.855h-1.383v0.456h1.664v0.902h-2.596v-3.565zM12.167 8.478h3.36l-1.68 3.641-1.68-3.641zM13.847 11.668l1.388-3.001h-2.771l1.383 3.001zM16.869 8.482h2.596v0.901h-1.665v0.451h1.383v0.855h-1.383v0.456h1.665v0.902h-2.597v-3.564zM21.063 12.041v-3.564h0.2l2.489 2.422v-2.422h0.189v3.564l-2.878-0.001zM26.661 12.046v-2.663h-1.347v-0.901h2.878v0.901h-1.347v2.663h-0.184zM9.796 14.628c0.225 0 0.405 0.034 0.538 0.103 0.3 0.149 0.502 0.452 0.502 0.803 0 0.006-0 0.011-0 0.017v-0.001c0 0.001 0 0.003 0 0.005 0 0.17-0.050 0.329-0.135 0.462l0.002-0.003c-0.090 0.142-0.213 0.256-0.358 0.333l-0.005 0.002c0.19 0.068 0.348 0.185 0.464 0.336l0.002 0.002c0.124 0.154 0.191 0.345 0.189 0.543 0 0.002 0 0.005 0 0.007 0 0.178-0.050 0.345-0.138 0.486l0.002-0.004c-0.089 0.147-0.211 0.265-0.356 0.348l-0.005 0.003c-0.079 0.042-0.163 0.073-0.251 0.092-0.092 0.021-0.215 0.031-0.369 0.031h-1.578v-3.564h1.496zM15.801 17.934c-0.268-0.234-0.4-0.585-0.397-1.053h0.835c-0.003 0.195 0.054 0.343 0.174 0.446s0.287 0.154 0.502 0.154c0.177 0 0.317-0.029 0.42-0.087s0.154-0.147 0.154-0.266c0-0.099-0.052-0.171-0.156-0.215-0.089-0.040-0.193-0.073-0.301-0.093l-0.009-0.002c0.045 0.005-0.019-0.007-0.083-0.018l-0.106-0.016c-0.261-0.049-0.49-0.114-0.709-0.197l0.028 0.009c-0.192-0.072-0.353-0.186-0.48-0.331l-0.001-0.001c-0.13-0.15-0.195-0.348-0.195-0.594s0.065-0.455 0.195-0.627c0.13-0.172 0.303-0.301 0.52-0.387 0.205-0.081 0.442-0.128 0.69-0.128 0.007 0 0.014 0 0.021 0h-0.001c0.311 0 0.58 0.058 0.807 0.174s0.405 0.292 0.535 0.527c0.060 0.1 0.1 0.21 0.118 0.325 0.013 0.101 0.020 0.203 0.020 0.305h-0.835c0-0.184-0.050-0.32-0.148-0.407s-0.253-0.131-0.461-0.131c-0.167 0-0.297 0.029-0.389 0.087s-0.138 0.137-0.138 0.236c0 0.109 0.061 0.189 0.184 0.241 0.151 0.060 0.307 0.106 0.466 0.138 0.307 0.061 0.547 0.12 0.719 0.177 0.174 0.057 0.328 0.161 0.448 0.3 0.126 0.143 0.189 0.345 0.189 0.604 0 0.246-0.068 0.458-0.205 0.635s-0.317 0.313-0.54 0.407c-0.209 0.089-0.453 0.141-0.709 0.141-0.006 0-0.011-0-0.017-0h0.001c-0.495-0-0.877-0.118-1.144-0.352zM20.515 18.192v-2.663h-1.347v-0.901h2.878v0.902h-1.347v2.663h-0.184zM23.014 14.628h2.597v0.902h-1.665v0.451h1.383v0.855h-1.383v0.456h1.665v0.901h-2.597v-3.564zM29.457 18.192h-2.74v-3.564h1.388c0.297 0 0.54 0.053 0.727 0.159 0.181 0.1 0.327 0.242 0.427 0.415l0.003 0.005c0.097 0.166 0.154 0.365 0.154 0.577 0 0.004-0 0.009-0 0.013v-0.001c0 0.003 0 0.007 0 0.010 0 0.267-0.093 0.513-0.248 0.706l0.002-0.002c-0.153 0.2-0.366 0.347-0.612 0.416l-0.008 0.002 0.907 1.265zM26.907 14.94v1.839h1.316l-1.316-1.839zM26.907 18.003h2.192l-0.748-1.040-0.159 0.005h-1.285v1.035zM27.040 14.817l1.393 1.946c0.231-0.047 0.427-0.17 0.567-0.342l0.001-0.002c0.14-0.164 0.225-0.379 0.225-0.614 0-0.004-0-0.008-0-0.011v0.001c0-0.003 0-0.007 0-0.011 0-0.185-0.051-0.358-0.141-0.505l0.002 0.004c-0.093-0.153-0.226-0.274-0.384-0.351l-0.005-0.002c-0.15-0.075-0.346-0.113-0.589-0.113h-1.070z"></path>
</symbol>
<symbol id="icon-logo-tablet" viewBox="0 0 38 32">
<path fill="#000" style="fill: var(--color2, #000)" opacity="0.03" d="M-0.178 32.001c4.996 0 9.942-0.828 14.558-2.436s8.809-3.966 12.341-6.937c3.532-2.972 6.334-6.5 8.246-10.382s2.896-8.044 2.896-12.246h-38.041v32.001z"></path>
<path fill="#fff" style="fill: var(--color3, #fff)" d="M14.79 16.452c-0.198-0.552-0.607-0.828-1.225-0.828h-0.195v3.404h0.195c0.478 0 0.831-0.188 1.059-0.565 0.192-0.321 0.288-0.731 0.288-1.228-0.001-0.295-0.041-0.556-0.121-0.782zM11.441 16.493c0.199 0.552 0.607 0.828 1.225 0.828h0.196v-3.404h-0.196c-0.478 0-0.831 0.188-1.058 0.565-0.191 0.321-0.287 0.731-0.287 1.228 0 0.295 0.040 0.556 0.12 0.783zM8.193 8.482h2.597v0.901h-1.664v0.45h1.383v0.855h-1.383v0.456h1.665v0.901h-2.597v-3.565zM12.096 8.477h3.36l-1.68 3.641-1.68-3.641zM13.776 11.668l1.388-3.001h-2.771l1.383 3.001zM16.797 8.482h2.597v0.901h-1.664v0.451h1.383v0.855h-1.383v0.456h1.665v0.901h-2.597v-3.565zM20.992 12.041v-3.564h0.2l2.489 2.422v-2.422h0.19v3.565l-2.878-0.001zM26.59 12.046v-2.663h-1.347v-0.901h2.878v0.901h-1.347v2.663h-0.184zM9.725 14.628c0.225 0 0.404 0.034 0.538 0.102 0.3 0.149 0.502 0.452 0.502 0.803 0 0.006-0 0.011-0 0.017v-0.001c0.001 0.164-0.045 0.325-0.133 0.464-0.090 0.142-0.213 0.256-0.359 0.333l-0.005 0.002c0.185 0.065 0.347 0.182 0.466 0.338 0.124 0.154 0.191 0.346 0.19 0.543 0.001 0.172-0.046 0.342-0.136 0.489s-0.211 0.265-0.356 0.348l-0.005 0.003c-0.079 0.043-0.164 0.074-0.251 0.092-0.092 0.020-0.215 0.031-0.369 0.031h-1.578v-3.565h1.496zM15.73 17.934c-0.268-0.234-0.4-0.585-0.397-1.052h0.835c-0.004 0.195 0.055 0.343 0.174 0.446s0.287 0.154 0.502 0.154c0.178 0 0.318-0.029 0.42-0.087 0.092-0.049 0.154-0.144 0.154-0.254 0-0.004-0-0.009-0-0.013l0 0.001c0-0.099-0.052-0.171-0.156-0.215-0.099-0.043-0.203-0.075-0.309-0.095 0.045 0.005-0.020-0.007-0.084-0.018l-0.106-0.016c-0.261-0.049-0.49-0.114-0.709-0.197l0.028 0.009c-0.192-0.072-0.353-0.186-0.48-0.331l-0.001-0.001c-0.13-0.15-0.195-0.348-0.195-0.594s0.065-0.455 0.195-0.628c0.132-0.173 0.308-0.306 0.512-0.384l0.008-0.003c0.204-0.081 0.441-0.128 0.689-0.128 0.007 0 0.014 0 0.021 0h-0.001c0.31 0 0.58 0.058 0.806 0.174 0.229 0.119 0.413 0.3 0.532 0.521l0.003 0.007c0.060 0.1 0.1 0.21 0.118 0.325 0.014 0.101 0.020 0.203 0.020 0.305h-0.835c0-0.184-0.049-0.32-0.148-0.407s-0.252-0.13-0.461-0.13c-0.167 0-0.297 0.029-0.389 0.087s-0.139 0.137-0.139 0.235c0 0.11 0.062 0.19 0.185 0.241 0.131 0.054 0.287 0.102 0.448 0.136l0.018 0.003c0.307 0.061 0.547 0.12 0.72 0.176 0.174 0.057 0.329 0.161 0.448 0.3 0.126 0.143 0.19 0.345 0.19 0.604 0 0.245-0.068 0.457-0.205 0.635s-0.316 0.313-0.54 0.407c-0.209 0.089-0.453 0.141-0.709 0.141-0.006 0-0.011-0-0.017-0h0.001c-0.495-0.001-0.876-0.118-1.145-0.352zM20.444 18.192v-2.663h-1.347v-0.901h2.878v0.901h-1.347v2.663h-0.184zM22.943 14.628h2.597v0.901h-1.664v0.45h1.383v0.856h-1.383v0.456h1.665v0.901h-2.597v-3.565zM29.386 18.192h-2.74v-3.565h1.388c0.297 0 0.539 0.053 0.727 0.159 0.18 0.098 0.329 0.243 0.43 0.42 0.103 0.179 0.156 0.383 0.154 0.589 0 0.003 0 0.007 0 0.011 0 0.267-0.093 0.513-0.247 0.706l0.002-0.002c-0.153 0.2-0.366 0.347-0.612 0.415l-0.008 0.002 0.907 1.265zM26.835 14.94v1.838h1.316l-1.316-1.838zM26.835 18.003h2.192l-0.748-1.040-0.159 0.005h-1.286v1.035zM26.969 14.817l1.393 1.946c0.231-0.047 0.427-0.17 0.567-0.341l0.001-0.002c0.148-0.174 0.228-0.396 0.225-0.625 0-0.003 0-0.007 0-0.012 0-0.185-0.051-0.358-0.14-0.505l0.002 0.004c-0.093-0.153-0.226-0.274-0.384-0.351l-0.005-0.002c-0.15-0.075-0.347-0.113-0.589-0.113h-1.070z"></path>
</symbol>
<symbol id="icon-place" viewBox="0 0 22 32">
<path fill="#fff" style="fill: var(--color3, #fff)" d="M11.206 0c-6.18 0-11.208 4.995-11.208 11.131 0 7.714 11.217 20.891 11.217 20.891s11.198-13.558 11.198-20.891c0-6.139-5.028-11.131-11.208-11.131zM14.588 14.391c-0.932 0.925-2.158 1.387-3.382 1.387s-2.45-0.461-3.382-1.387c-0.864-0.858-1.399-2.046-1.399-3.359s0.535-2.501 1.398-3.359l0-0c0.903-0.897 2.104-1.39 3.382-1.39s2.479 0.493 3.382 1.39c1.864 1.854 1.864 4.867 0 6.718z"></path>
</symbol>
<symbol id="icon-points" viewBox="0 0 107 32">
<path fill="#fff" style="fill: var(--color3, #fff)" d="M12.66 22.315c-0.030 0-0.065 0-0.1 0-2.829 0-5.383-1.178-7.198-3.071l-0.003-0.003c-1.786-1.887-2.885-4.441-2.885-7.252 0-0.085 0.001-0.17 0.003-0.254l-0 0.013c0-2.946 0.961-5.38 2.882-7.301 1.818-1.896 4.372-3.075 7.201-3.075 0.035 0 0.070 0 0.106 0.001l-0.005-0c2.818 0 5.252 1.025 7.301 3.074 2.049 1.921 3.074 4.355 3.074 7.301s-1.025 5.444-3.074 7.493c-1.818 1.896-4.372 3.075-7.201 3.075-0.035 0-0.070-0-0.106-0.001l0.005 0zM53.381 22.315c-0.030 0-0.065 0-0.1 0-2.829 0-5.383-1.178-7.198-3.071l-0.003-0.003c-1.786-1.887-2.885-4.441-2.885-7.252 0-0.085 0.001-0.17 0.003-0.254l-0 0.013c0-2.946 0.961-5.38 2.882-7.301 1.818-1.896 4.372-3.075 7.201-3.075 0.032 0 0.063 0 0.094 0l-0.005-0c2.818 0 5.252 1.025 7.301 3.074 2.049 1.921 3.074 4.355 3.074 7.301s-1.025 5.444-3.074 7.493c-1.818 1.896-4.372 3.075-7.201 3.075-0.035 0-0.070-0-0.106-0.001l0.005 0zM94.093 22.315c-0.030 0-0.065 0-0.1 0-2.829 0-5.383-1.178-7.198-3.071l-0.003-0.003c-1.786-1.887-2.885-4.441-2.885-7.252 0-0.085 0.001-0.17 0.003-0.254l-0 0.013c0-2.946 0.961-5.38 2.882-7.301 1.818-1.896 4.372-3.075 7.201-3.075 0.035 0 0.070 0 0.106 0.001l-0.005-0c2.818 0 5.252 1.025 7.301 3.074 2.049 1.921 3.074 4.355 3.074 7.301s-1.025 5.444-3.074 7.493c-1.818 1.896-4.372 3.075-7.201 3.075-0.035 0-0.070-0-0.106-0.001l0.005 0z"></path>
</symbol>
<symbol id="icon-ticket" viewBox="0 0 44 32">
<path d="M4.91 1.278h-4.91v29.462h4.91v-29.462zM17.26 1.278h-4.911v29.462h4.911v-29.462zM24.7 1.278h-4.91v29.462h4.91v-29.462zM44.191 1.278h-7.292v29.462h7.292v-29.462zM9.82 1.278h-2.38v29.462h2.38v-29.462zM29.46 1.278h-2.38v29.462h2.38v-29.462zM34.37 1.278h-2.38v29.462h2.382v-29.462z"></path>
</symbol>
<symbol id="Polygon-1" viewBox="0 0 52 32">
<path d="M26 32l-25.981-30h51.962l-25.981 30z"></path>
</symbol>
<symbol id="search-icon" viewBox="0 0 32 32">
<path d="M4.024 4.024c2.595-2.595 6.045-4.024 9.715-4.024s7.12 1.429 9.715 4.024c2.595 2.595 4.024 6.045 4.024 9.715 0 3.355-1.195 6.526-3.383 9.029l7.63 7.63c0.366 0.366 0.366 0.961 0 1.327-0.183 0.183-0.423 0.275-0.664 0.275s-0.48-0.092-0.663-0.275l-7.63-7.63c-2.502 2.188-5.673 3.383-9.029 3.383-3.67 0-7.12-1.429-9.715-4.024s-4.024-6.045-4.024-9.715 1.429-7.12 4.024-9.715zM5.351 22.127c4.625 4.625 12.15 4.625 16.775 0s4.625-12.15 0-16.775c-2.313-2.313-5.35-3.469-8.388-3.469s-6.075 1.157-8.388 3.469c-4.625 4.625-4.625 12.15 0 16.775z"></path>
</symbol>
<symbol id="heart" viewBox="0 0 32 32">
<path d="M23.6 2c-3.363 0-6.258 2.736-7.599 5.594-1.342-2.858-4.237-5.594-7.601-5.594-4.637 0-8.4 3.764-8.4 8.401 0 9.433 9.516 11.906 16.001 21.232 6.13-9.268 15.999-12.1 15.999-21.232 0-4.637-3.763-8.401-8.4-8.401z"></path>
</symbol>
<symbol id="up-icon" viewBox="0 0 32 32">
<path fill="#ed7aef" style="fill: var(--color1, #ed7aef)" d="M12.8 5.401c0.128 0 0.255 0.051 0.349 0.154l7.99 6.461h1.425c0.413 0 0.628-0.491 0.349-0.795l-9.764-8.397c-0.087-0.095-0.211-0.154-0.349-0.154-0 0-0 0-0 0h0c-0.128 0-0.255 0.051-0.349 0.154l-9.765 8.398c-0.279 0.304-0.063 0.795 0.349 0.795h1.425l7.99-6.461c0.087-0.095 0.211-0.154 0.349-0.154 0 0 0 0 0.001 0h-0z"></path>
<path fill="#d56ad7" style="fill: var(--color2, #d56ad7)" d="M12.8 10.862c0.128 0 0.255 0.051 0.349 0.154l7.99 6.462h1.425c0.413 0 0.628-0.491 0.349-0.795l-9.764-8.398c-0.087-0.095-0.211-0.154-0.349-0.154-0 0-0.001 0-0.001 0h0c-0.128 0-0.255 0.051-0.349 0.154l-9.765 8.397c-0.279 0.304-0.063 0.795 0.349 0.795h1.425l7.99-6.461c0.087-0.095 0.211-0.154 0.349-0.154 0 0 0 0 0.001 0h-0z"></path>
<path fill="#a53faa" style="fill: var(--color3, #a53faa)" d="M12.8 16.33c0.128 0 0.255 0.051 0.349 0.154l7.99 6.462h1.425c0.413 0 0.628-0.491 0.349-0.795l-9.764-8.398c-0.087-0.094-0.211-0.153-0.348-0.153-0 0-0.001 0-0.001 0h0c-0.128 0-0.255 0.051-0.349 0.154l-9.765 8.397c-0.279 0.304-0.063 0.795 0.349 0.795h1.425l7.99-6.461c0.087-0.095 0.211-0.154 0.349-0.154 0 0 0.001 0 0.001 0h-0z"></path>
</symbol>
</defs>
</svg>
